<svg version="1.1" id="Layer_1" xmlns="http://www.w3.org/2000/svg" xmlns:xlink="http://www.w3.org/1999/xlink" x="0px" y="0px"
	 width="100%" viewBox="0 0 1024 1024" enable-background="new 0 0 1024 1024" xml:space="preserve">
<path fill="#000000" opacity="1.000000" stroke="none" 
	d="
M708.420044,452.573334 
	C682.706421,461.020203 657.002808,467.852692 630.567200,471.728485 
	C618.480042,473.500610 606.345154,473.912659 594.199463,472.838501 
	C590.685730,472.527771 588.283569,473.402740 585.871765,475.938171 
	C567.902527,494.828125 547.046448,509.341461 522.034729,517.422485 
	C520.770508,517.830933 519.487915,518.195312 518.193420,518.490417 
	C517.758972,518.589417 517.260864,518.408936 516.573669,518.331726 
	C516.695068,516.062195 518.584717,515.283691 519.849060,514.247009 
	C530.708923,505.342651 538.601990,494.005463 546.110901,482.366760 
	C548.726013,478.313293 547.866028,476.653870 542.993774,476.470184 
	C536.669006,476.231689 530.329956,476.391174 523.997314,476.343750 
	C499.668732,476.161530 475.443420,474.403229 451.287170,471.576447 
	C449.471039,471.363892 447.491058,471.770966 445.822937,471.200623 
	C434.675751,467.389160 429.145966,473.157562 424.158386,482.266846 
	C418.177979,493.189331 409.286743,501.869354 398.777771,508.707947 
	C397.163757,509.758240 395.697815,511.332794 393.465027,511.077789 
	C392.223572,509.727386 393.212982,508.492035 393.718903,507.380249 
	C398.377441,497.143311 397.670044,486.258545 397.695496,475.454773 
	C397.700836,473.189270 396.242706,471.841522 394.813782,470.427032 
	C387.765808,463.450317 379.441467,459.308167 369.633759,457.213165 
	C361.019501,455.373077 352.810120,453.729614 344.402771,457.690338 
	C342.063965,458.792175 339.548584,458.687042 339.871063,454.911438 
	C340.172028,451.387268 337.887848,450.133484 335.130890,449.577698 
	C322.057159,446.942169 308.895630,445.108185 295.501465,445.323273 
	C289.620636,445.417725 285.771484,448.378754 282.228882,452.830811 
	C266.818146,472.197784 248.643707,488.420502 226.641129,500.043396 
	C217.396713,504.926727 207.803345,508.961548 196.995712,510.816559 
	C197.113327,507.757324 199.401031,506.915161 200.879395,505.686768 
	C221.753159,488.342407 236.264984,466.542725 246.304642,441.522736 
	C247.532578,438.462585 247.469360,435.950165 245.962585,433.035583 
	C234.627716,411.109985 219.158844,392.546814 200.347961,376.705048 
	C195.810181,372.883484 190.989944,369.397308 185.743164,365.325012 
	C189.388885,363.884613 192.284210,364.583221 195.053528,365.167358 
	C220.732315,370.584106 243.043686,382.782867 263.108124,399.361847 
	C270.428284,405.410431 277.539185,411.717682 284.100128,418.604553 
	C286.162231,420.769043 288.416382,422.061676 291.578003,421.720398 
	C304.795044,420.293732 318.109833,419.605347 331.133575,416.720581 
	C339.936188,414.770782 341.282959,412.900024 340.942902,403.858154 
	C346.264587,403.450714 350.944916,405.858490 355.749969,407.368744 
	C359.746399,408.624847 363.503418,408.661835 367.469025,407.498199 
	C400.683441,397.751678 433.915009,388.063751 467.137726,378.345459 
	C469.409210,377.681000 471.470825,376.531738 473.176849,374.915619 
	C476.026001,372.216553 479.373688,370.476044 483.032745,369.190125 
	C486.086548,368.116913 488.896393,366.692291 489.852448,363.189026 
	C489.937073,362.878906 490.111206,362.407959 490.334381,362.347778 
	C496.931702,360.569611 499.735504,354.579163 504.041748,350.227448 
	C505.691254,348.560547 507.749084,347.437012 507.773560,344.708466 
	C507.780640,343.922668 507.981812,342.925659 508.482971,342.388336 
	C521.008423,328.959167 521.961975,313.261932 517.601807,296.493103 
	C517.568542,296.365234 517.703674,296.193604 517.934265,295.576416 
	C522.736511,295.798706 527.035889,297.973877 531.138550,300.260406 
	C551.378662,311.540955 566.990295,327.708649 579.719666,346.857239 
	C584.803772,354.505188 589.184448,362.550659 593.124573,370.828247 
	C595.122253,375.024933 598.109924,377.382172 602.670593,378.729218 
	C625.433777,385.452454 646.692627,395.971008 668.239136,405.666901 
	C690.553162,415.708221 713.787537,420.958374 738.096008,422.898499 
	C780.116943,426.252350 822.199402,427.831268 864.323364,428.736267 
	C865.903320,428.770233 867.692322,428.289429 869.954224,431.248535 
	C840.593018,433.775085 812.055298,434.351685 783.622437,436.340118 
	C754.900818,438.348755 726.096069,439.180267 695.994568,442.510834 
	C705.440186,443.548920 713.626648,443.487488 722.600525,446.324097 
	C717.856201,449.932739 713.073303,450.666199 708.420044,452.573334 
z"/>
<path fill="#000000" opacity="1.000000" stroke="none" 
	d="
M531.824585,556.278687 
	C536.093323,564.778687 540.188721,572.946045 544.212708,580.971008 
	C546.687927,580.773499 546.904175,578.996399 547.546326,577.795654 
	C553.044312,567.514526 558.590027,557.254456 563.814331,546.834045 
	C565.344910,543.781128 567.193665,542.102051 570.588745,542.071411 
	C575.751892,542.024841 580.914185,541.859985 586.077209,541.838318 
	C587.739258,541.831360 589.405762,542.109802 590.726990,543.995361 
	C587.541626,548.906494 588.335266,554.629211 588.327026,560.230042 
	C588.299866,578.716858 588.128967,597.202148 589.224670,615.678040 
	C589.476562,619.924072 591.493225,623.514038 592.817444,627.980347 
	C583.292053,629.328796 574.339355,629.388367 564.411255,627.923035 
	C569.520752,619.494873 567.384094,611.073059 567.599487,602.898010 
	C567.817871,594.603882 567.764465,586.290405 566.525574,577.068481 
	C560.428650,588.071411 554.764771,598.371338 549.009888,608.620239 
	C547.663818,611.017578 546.945435,614.669128 543.807922,614.805542 
	C540.235901,614.960876 539.582031,611.014343 538.182068,608.539124 
	C532.394775,598.306946 526.786011,587.973755 520.646973,577.776794 
	C521.035767,594.336609 518.300171,610.878296 521.931274,627.856689 
	C514.305969,629.501953 506.735596,629.464478 499.773621,627.996460 
	C502.939941,599.569702 503.690033,571.730530 501.192047,543.712524 
	C502.710480,541.377747 505.649811,541.946167 508.361389,541.885864 
	C524.605896,541.524597 524.606445,541.547974 531.824585,556.278687 
z"/>
<path fill="#000000" opacity="1.000000" stroke="none" 
	d="
M218.473236,566.564636 
	C218.151550,574.735474 213.618149,579.709778 207.100906,583.447937 
	C207.779312,584.041077 208.088791,584.457703 208.502701,584.652222 
	C221.081802,590.565979 222.648849,598.211060 221.119019,608.914001 
	C219.640350,619.258789 212.258743,625.143616 202.656158,626.790955 
	C185.901108,629.665283 168.902588,629.513245 151.952972,628.121277 
	C151.383179,628.074585 150.856110,627.507446 150.057953,627.033752 
	C154.157318,618.199463 153.496490,608.856201 153.587921,599.646545 
	C153.741486,584.179138 153.776398,568.710266 152.801346,553.252930 
	C152.587616,549.864807 151.660294,546.818665 150.115601,544.196899 
	C151.318558,542.271362 152.897079,542.137390 154.340347,542.112244 
	C169.299164,541.851685 184.299728,541.152222 199.129456,543.746643 
	C212.414368,546.070862 218.674393,553.540344 218.473236,566.564636 
M174.265793,608.353882 
	C174.254517,615.797180 174.257187,615.871948 181.584091,615.609924 
	C184.555450,615.503601 187.545563,615.170410 190.468750,614.626587 
	C196.391968,613.524353 199.043915,609.826416 199.012955,603.115173 
	C198.984879,597.028564 195.629379,592.297791 190.294983,591.456055 
	C186.542862,590.863953 182.705505,590.738098 178.898941,590.587463 
	C175.652756,590.458923 174.094772,591.994507 174.268539,595.454773 
	C174.467926,599.425110 174.286423,603.414612 174.265793,608.353882 
M177.987946,577.653198 
	C181.470673,577.569214 184.963562,578.002197 188.420975,577.064331 
	C194.091614,575.526184 196.789810,572.414978 196.975311,566.931213 
	C197.170380,561.164429 194.944962,558.189514 189.246918,556.237183 
	C185.335098,554.896912 181.340912,555.399170 177.365463,555.399170 
	C175.315247,555.399231 174.369141,556.617126 174.371109,558.597900 
	C174.376434,563.927917 174.380478,569.258179 174.433685,574.587830 
	C174.450958,576.318970 175.362244,577.377991 177.987946,577.653198 
z"/>
<path fill="#000000" opacity="1.000000" stroke="none" 
	d="
M820.241333,620.978271 
	C820.358276,600.696655 822.122681,580.758911 818.843933,560.112366 
	C824.637024,558.184204 831.132507,558.487244 837.579834,559.751892 
	C839.576233,560.143494 840.233765,562.620422 841.228027,564.305908 
	C847.119446,574.293579 852.930054,584.328857 859.303284,594.220703 
	C858.674561,583.509338 861.798828,572.750244 857.887329,562.276611 
	C857.198364,560.431580 857.832153,559.115112 859.670227,559.039124 
	C865.230164,558.809204 870.848022,558.134155 875.945190,559.485657 
	C873.108582,582.516235 874.040161,604.960022 875.376099,627.975952 
	C870.681458,628.848450 865.575378,628.454834 860.495483,628.206360 
	C858.301086,628.099060 857.728882,626.019714 856.818115,624.491150 
	C849.925720,612.923767 843.063599,601.338440 835.692322,589.830933 
	C835.951599,601.499634 833.663757,613.174622 836.617554,624.697144 
	C837.316284,627.422852 836.556946,628.577026 834.066040,628.729309 
	C828.958374,629.041565 823.820435,629.408813 818.893372,627.775024 
	C817.960693,625.198059 819.967468,623.476807 820.241333,620.978271 
z"/>
<path fill="#000000" opacity="1.000000" stroke="none" 
	d="
M709.097900,596.713623 
	C707.843445,597.604187 707.585571,598.510559 708.461487,599.401184 
	C716.194214,607.263306 718.787781,618.354004 725.782593,626.413025 
	C725.192200,628.433594 723.725464,628.365967 722.445251,628.428772 
	C718.292236,628.632812 714.126160,628.628601 709.981140,628.926208 
	C704.869690,629.293213 702.298950,627.712036 701.389771,622.015625 
	C700.371826,615.637939 696.797852,609.932434 693.146973,604.520081 
	C691.644287,602.292419 689.500916,600.797241 686.786987,601.567688 
	C683.794556,602.417114 684.494202,605.282288 684.418518,607.494446 
	C684.190735,614.147034 684.694458,620.730469 687.372864,627.608032 
	C679.202087,629.633606 671.529968,629.518066 664.366943,628.054443 
	C668.159485,605.202026 667.252502,583.014038 664.674011,560.810242 
	C664.940430,559.429016 666.367249,559.236145 667.633728,559.196411 
	C680.108765,558.805603 692.687256,558.100525 704.917053,560.952332 
	C719.811951,564.425415 725.479370,579.942017 716.450745,591.097412 
	C714.509888,593.495544 711.894897,594.948364 709.097900,596.713623 
M694.982544,590.714539 
	C700.995178,587.592590 703.380554,582.155762 701.298889,576.317932 
	C699.792786,572.094055 693.961670,569.403442 688.313782,570.098755 
	C686.025330,570.380493 685.077576,571.523682 685.050415,573.645508 
	C685.005798,577.129089 684.954895,580.614380 685.014282,584.097168 
	C685.151978,592.170227 686.039734,592.809937 694.982544,590.714539 
z"/>
<path fill="#000000" opacity="1.000000" stroke="none" 
	d="
M460.909821,628.938232 
	C456.146057,628.754272 451.777466,629.445618 447.443878,627.780457 
	C447.787201,617.168335 440.235901,610.179016 435.924744,600.825989 
	C425.777222,609.598755 432.328674,618.782593 433.277069,628.124390 
	C425.580780,629.320435 417.862976,629.634094 410.348907,627.987061 
	C413.893097,604.982178 412.631409,582.775818 410.487122,559.443359 
	C417.558563,558.390381 425.355835,558.442566 433.792053,559.937927 
	C429.967407,568.364319 431.536713,576.484497 431.972565,584.815125 
	C437.620819,577.150085 446.167847,571.458191 447.855103,559.905579 
	C453.601959,557.739929 460.591339,558.396606 467.377960,559.148926 
	C470.854858,559.534302 469.498993,562.156738 467.686066,563.817200 
	C460.886810,570.045044 455.950348,577.842651 449.920502,584.709595 
	C447.875977,587.038025 447.970490,588.668152 449.470703,591.225952 
	C456.300537,602.870422 463.345734,614.351013 471.923798,624.822021 
	C472.414520,625.420959 472.649292,626.229675 473.163605,627.263184 
	C469.232941,629.162781 465.254059,628.715271 460.909821,628.938232 
z"/>
<path fill="#000000" opacity="1.000000" stroke="none" 
	d="
M283.375427,662.706665 
	C294.412323,660.819763 301.676697,664.442871 306.468903,674.513367 
	C310.006836,681.948059 315.187866,688.600891 320.137024,695.503967 
	C319.970032,685.050354 322.489716,674.523804 317.923767,663.733704 
	C324.155151,661.718994 330.197632,662.962280 336.392639,662.947754 
	C332.486115,680.780701 335.071930,698.058960 334.385345,715.218872 
	C334.326202,716.696838 334.544220,718.207886 334.805695,719.672852 
	C335.960266,726.141479 335.874542,725.885010 329.562012,726.391602 
	C322.578064,726.952026 317.972687,725.155090 314.407471,718.356812 
	C309.115448,708.265686 302.383362,698.929749 295.755371,689.404297 
	C296.575104,700.585022 293.050110,711.902649 297.747131,722.775391 
	C298.659698,724.887756 297.692078,726.073608 295.603577,726.133789 
	C291.115143,726.263000 286.616150,726.328186 282.131073,726.161560 
	C279.377319,726.059204 278.643188,724.476868 280.190796,722.126953 
	C281.649078,719.912598 281.765747,717.447205 281.762146,714.935303 
	C281.742310,701.123657 281.714478,687.312073 281.711945,673.500427 
	C281.711548,671.303345 281.528412,669.149475 280.312653,667.261658 
	C278.210815,663.997986 279.438202,662.727356 283.375427,662.706665 
z"/>
<path fill="#000000" opacity="1.000000" stroke="none" 
	d="
M299.758698,617.908081 
	C298.791840,621.262024 299.437439,624.199585 300.187500,627.691284 
	C293.277893,629.059570 286.735718,629.801331 279.058777,627.631165 
	C282.849884,621.678345 285.235504,615.725586 287.154297,609.589050 
	C291.024384,597.211853 294.875732,584.828796 298.792603,572.466431 
	C299.768188,569.387268 300.194275,566.260254 299.638336,563.113586 
	C299.119720,560.178040 300.466064,559.033936 303.065033,558.997925 
	C310.386780,558.896545 317.710114,558.860718 325.032471,558.890503 
	C326.576935,558.896729 328.456848,559.450867 327.948029,561.408691 
	C325.665771,570.190613 330.098297,577.766113 332.493500,585.526672 
	C336.700531,599.157715 339.921356,613.178223 346.507507,626.003235 
	C346.704651,626.387024 346.532471,626.960510 346.532471,627.928467 
	C338.657227,629.307068 330.904999,629.550415 323.505707,627.868347 
	C322.638916,625.938171 323.454620,624.903381 323.642822,623.786011 
	C324.942688,616.069702 322.742523,613.371704 315.133942,613.367065 
	C311.970917,613.365173 308.802856,613.469421 305.646301,613.324646 
	C302.510132,613.180725 300.513641,614.344482 299.758698,617.908081 
M306.940338,593.234802 
	C306.281952,596.226135 304.560150,599.021057 305.057373,602.450378 
	C308.823334,603.365356 312.462128,603.004150 316.079041,602.870239 
	C317.319519,602.824280 318.715637,602.230347 318.374969,600.844543 
	C316.601624,593.631165 314.903564,586.374084 311.436951,578.165649 
	C309.715729,583.923218 308.439056,588.193726 306.940338,593.234802 
z"/>
<path fill="#000000" opacity="1.000000" stroke="none" 
	d="
M656.836914,619.150452 
	C658.307251,621.967468 659.606812,624.443970 661.077454,627.246277 
	C656.990295,629.391968 652.687500,628.789307 648.505127,628.891846 
	C646.844604,628.932556 645.169006,628.924255 643.520447,628.748657 
	C641.401184,628.522949 638.945312,629.405762 637.226746,627.894592 
	C635.079285,626.006348 637.430908,623.904175 637.595581,621.885986 
	C638.178528,614.740356 635.304565,611.918152 628.076904,612.706482 
	C626.094360,612.922729 624.101379,613.086792 622.109009,613.160645 
	C614.451050,613.444458 612.324280,615.354553 613.534912,623.144226 
	C614.323853,628.220764 612.172791,628.985901 608.303162,628.933716 
	C603.708923,628.871643 599.035583,629.427551 594.184753,627.445496 
	C595.655762,624.166199 597.248840,621.150940 598.392212,617.973938 
	C603.625244,603.432495 608.132385,588.656433 612.326416,573.785400 
	C613.363892,570.106812 614.457581,566.398926 613.515564,562.507812 
	C612.786743,559.497498 614.925964,558.981628 616.939575,558.937500 
	C624.087524,558.780762 631.241577,558.756897 638.390625,558.862793 
	C641.120422,558.903198 642.701782,559.996460 641.740356,563.330200 
	C640.271545,568.423767 642.687622,573.200867 643.945435,577.903931 
	C647.634766,591.698364 651.770935,605.378479 656.836914,619.150452 
M626.033997,603.278015 
	C628.032532,602.766846 630.389648,603.703003 632.452454,601.464355 
	C630.428101,593.956909 628.351196,586.254333 626.274231,578.551758 
	C625.908020,578.578491 625.541809,578.605225 625.175598,578.631958 
	C622.900818,586.357544 620.626038,594.083130 618.388062,601.683777 
	C620.611755,603.787537 622.930054,603.564270 626.033997,603.278015 
z"/>
<path fill="#000000" opacity="1.000000" stroke="none" 
	d="
M397.838318,716.812073 
	C391.278778,723.226807 383.397766,725.716125 374.899078,726.112000 
	C366.752655,726.491516 358.575897,726.236572 350.412537,726.217346 
	C348.942169,726.213867 347.345978,726.328918 347.079559,725.847046 
	C350.125336,704.383972 349.823975,684.034302 347.192566,663.327637 
	C347.374512,663.256470 347.970490,662.815552 348.560242,662.823792 
	C359.530518,662.975769 370.551422,661.684937 381.460236,663.615906 
	C396.306763,666.243835 405.119019,677.131226 405.395233,692.330383 
	C405.557861,701.277344 404.193573,709.580139 397.838318,716.812073 
M366.321350,699.496826 
	C366.321381,703.650513 366.406281,707.806519 366.292053,711.957092 
	C366.214386,714.780151 367.466888,715.652710 370.184509,715.736511 
	C377.503113,715.962036 384.038483,711.770508 386.269836,704.773438 
	C388.384003,698.143921 388.517853,691.351929 386.589630,684.658752 
	C384.376831,676.977905 378.572510,673.057556 370.592255,673.125854 
	C367.353577,673.153564 366.191071,674.358459 366.263611,677.564331 
	C366.421417,684.539001 366.317993,691.519653 366.321350,699.496826 
z"/>
<path fill="#000000" opacity="1.000000" stroke="none" 
	d="
M638.386230,669.693970 
	C645.836426,680.483398 643.264343,689.949585 630.498962,698.203979 
	C637.858826,706.004150 641.137573,716.256836 648.112976,725.403442 
	C640.906433,726.766846 634.584778,726.691101 628.268005,725.645386 
	C626.664185,725.379883 626.211731,723.714905 625.681824,722.249512 
	C623.526184,716.288269 620.853943,710.561462 617.543701,705.142273 
	C616.051758,702.699829 614.093079,700.777527 611.056396,701.607056 
	C607.885620,702.473206 608.948120,705.460632 608.981689,707.560974 
	C609.073486,713.310181 608.070862,719.270081 611.538086,724.227783 
	C611.119873,725.697083 610.245483,726.133484 609.186890,726.142761 
	C603.691528,726.190796 598.195557,726.235962 592.700439,726.195007 
	C590.638184,726.179626 588.617676,725.435852 589.880066,722.942261 
	C592.728210,717.316406 592.209167,711.245239 592.492249,705.341980 
	C593.027039,694.190979 592.409424,683.033691 591.693420,671.894470 
	C591.629639,670.901611 591.620728,669.876709 591.358582,668.929810 
	C589.637146,662.711914 589.619568,662.588562 596.255554,662.732422 
	C606.062744,662.944946 615.906982,661.872803 625.674988,663.577698 
	C630.371094,664.397400 634.633484,666.078369 638.386230,669.693970 
M609.184937,689.007507 
	C610.386536,693.884827 614.210815,691.818298 616.920166,691.576904 
	C621.106018,691.204102 623.796082,688.480530 624.677979,684.328308 
	C626.497375,675.762634 619.318359,670.795654 609.125488,673.893555 
	C609.125488,678.550049 609.125488,683.328979 609.184937,689.007507 
z"/>
<path fill="#000000" opacity="1.000000" stroke="none" 
	d="
M414.721680,700.869995 
	C414.709595,691.896973 414.687256,683.406433 414.698578,674.915955 
	C414.702362,672.075256 414.762360,669.250549 413.194489,666.692017 
	C412.308685,665.246460 412.055511,663.248840 414.008301,663.106079 
	C420.990479,662.595581 428.037506,661.986450 434.903809,663.503601 
	C430.022095,678.197144 432.556641,692.676880 432.679199,706.955872 
	C432.733887,713.328308 437.526825,716.818054 443.244446,716.643066 
	C449.368591,716.455627 453.393433,712.835754 453.581848,706.112488 
	C453.912781,694.303772 453.523285,682.475952 453.767334,670.663025 
	C453.821564,668.039612 449.687469,665.268311 453.311890,663.197693 
	C455.358887,662.028198 458.511871,662.657349 461.161224,662.717407 
	C463.940674,662.780457 466.811890,662.096619 469.895844,663.582092 
	C465.637451,677.983154 468.299927,692.827515 467.194031,707.469543 
	C466.375427,718.308044 458.661011,725.760864 447.288025,727.123413 
	C443.522247,727.574646 439.589081,727.570251 435.837952,727.034851 
	C421.913635,725.047485 415.162262,716.670471 414.721680,700.869995 
z"/>
<path fill="#000000" opacity="1.000000" stroke="none" 
	d="
M720.311157,701.704712 
	C716.325989,700.028809 712.874512,697.861084 708.619019,698.386780 
	C707.795898,698.488464 706.668457,698.147461 706.174683,698.577332 
	C701.750854,702.428589 704.919678,707.539124 704.148438,712.027771 
	C703.676941,714.772156 705.474976,715.881775 708.112793,715.772827 
	C715.086731,715.484619 722.395142,717.377136 728.083557,710.806091 
	C730.339844,708.199768 731.939453,710.759644 731.930176,713.283508 
	C731.917969,716.596863 731.478638,719.907837 731.249390,723.221619 
	C731.128845,724.965271 730.307495,726.143066 728.507690,726.145813 
	C714.046692,726.167664 699.579712,726.813599 685.128967,725.778992 
	C684.873108,725.760620 684.644531,725.359558 684.324646,725.064758 
	C688.789368,709.316528 685.830017,693.158020 686.634094,677.175293 
	C686.802917,673.819641 686.397400,670.403870 684.966248,667.416809 
	C682.999329,663.311646 685.167419,662.741333 688.339905,662.725159 
	C696.165588,662.685120 703.991577,662.706970 711.817444,662.705994 
	C713.982056,662.705688 716.146606,662.712952 718.311218,662.715637 
	C729.822083,662.729919 732.060059,666.013672 728.518188,677.697510 
	C727.428711,678.261475 726.523193,677.721802 725.813477,677.039124 
	C720.284058,671.720093 713.382080,673.367310 706.837646,673.273987 
	C705.030518,673.248230 704.163269,674.423157 704.094849,676.170410 
	C704.049316,677.333862 704.062744,678.500061 704.067566,679.664978 
	C704.102478,688.062317 709.224670,690.837830 716.819641,686.577515 
	C721.325928,684.049866 722.261353,684.437927 722.069702,689.730835 
	C721.925476,693.715454 723.805054,698.024658 720.311157,701.704712 
z"/>
<path fill="#000000" opacity="1.000000" stroke="none" 
	d="
M367.829956,587.726440 
	C366.812408,594.180054 367.508240,600.188660 368.547791,606.064636 
	C369.583832,611.920959 372.701477,616.700256 378.915436,618.331909 
	C385.152649,619.969666 390.283386,618.336792 394.249512,612.892639 
	C397.418701,608.542419 398.814880,608.892761 400.735809,613.906677 
	C404.119965,622.739868 403.424957,624.277771 394.567444,627.555908 
	C377.034943,634.044861 361.388000,629.285278 352.687592,614.816711 
	C345.102722,602.203247 346.325134,581.340149 355.554138,569.895447 
	C364.966431,558.223450 377.662903,556.732117 391.339478,559.066284 
	C401.136963,560.738464 404.018158,565.872559 400.969116,575.559143 
	C400.548370,576.895813 399.966034,578.024170 398.386108,578.242554 
	C396.383453,578.519409 394.860107,577.959534 393.749664,576.124756 
	C391.518372,572.438110 388.745575,569.534973 383.982727,569.317200 
	C375.407410,568.925293 369.895813,573.608887 368.380280,582.820862 
	C368.137390,584.297241 368.059784,585.800903 367.829956,587.726440 
z"/>
<path fill="#000000" opacity="1.000000" stroke="none" 
	d="
M505.533997,727.217896 
	C497.531586,727.799011 490.217804,726.749329 482.932465,724.626892 
	C478.469513,723.326599 477.047180,720.835388 477.799072,716.570251 
	C478.087738,714.932861 478.308655,713.283569 478.591522,711.645020 
	C478.885254,709.943298 478.131989,707.644714 480.501587,706.987000 
	C482.978271,706.299561 483.976990,708.492615 485.131989,710.039185 
	C488.970734,715.179382 494.123627,717.133545 500.400574,716.710205 
	C504.207214,716.453552 507.366760,715.268005 508.295135,711.183289 
	C509.186401,707.261902 506.721832,704.895752 503.698273,703.182373 
	C501.689270,702.044067 499.431213,701.341980 497.276184,700.465454 
	C494.814148,699.464172 492.258179,698.654602 489.890503,697.467529 
	C480.767059,692.893555 476.379364,685.554443 477.895660,677.678284 
	C479.569366,668.984436 486.801758,662.685059 496.715149,661.818542 
	C503.858124,661.194275 510.971710,661.562988 517.965698,663.639771 
	C521.251465,664.615540 522.698120,666.282898 522.352539,669.696411 
	C522.135376,671.842041 522.282898,674.022156 522.166077,676.181335 
	C522.085266,677.675171 521.975342,679.313354 520.267944,679.923279 
	C518.540405,680.540405 517.372681,679.376526 516.486389,678.165771 
	C513.883911,674.610535 510.318817,672.702698 506.134216,671.714539 
	C503.781769,671.159058 501.529663,671.343506 499.296448,672.262695 
	C496.801605,673.289551 494.938995,675.020996 494.714661,677.703430 
	C494.497864,680.295837 496.311249,682.101624 498.496246,683.116089 
	C504.073639,685.705505 509.934540,687.737915 515.341003,690.630493 
	C525.806763,696.229919 528.808228,709.025696 522.252197,718.357300 
	C518.279358,724.012024 512.144409,725.598083 505.533997,727.217896 
z"/>
<path fill="#000000" opacity="1.000000" stroke="none" 
	d="
M782.086304,665.194824 
	C784.294861,669.729553 783.285217,674.090637 782.116638,678.147095 
	C781.086487,681.723022 778.619873,680.340881 777.034241,678.221985 
	C774.629028,675.007629 771.562561,672.933899 767.732178,671.885315 
	C765.088440,671.161560 762.492371,671.140381 759.894409,672.137878 
	C757.344482,673.117004 755.685425,674.803345 755.412842,677.590637 
	C755.126709,680.516785 756.778137,682.388977 759.218567,683.440613 
	C764.108826,685.547974 769.164368,687.278381 774.020386,689.457031 
	C786.943726,695.255249 790.533081,709.652405 781.700500,719.967468 
	C777.648132,724.699890 772.062622,726.491333 766.200562,727.152283 
	C758.681091,728.000366 751.303955,726.963257 744.043091,724.653137 
	C739.510620,723.210999 737.918701,720.560547 738.909729,716.043274 
	C739.265259,714.422974 739.413757,712.756104 739.632080,711.107178 
	C739.842224,709.519470 739.379883,707.538147 741.564697,706.990906 
	C743.539124,706.496399 744.671509,707.946289 745.597290,709.330017 
	C749.415771,715.037720 754.819153,717.209778 761.498962,716.668396 
	C765.307373,716.359680 768.520447,714.812500 769.350037,710.911987 
	C770.172424,707.045105 767.502380,704.680664 764.278870,703.240417 
	C759.422119,701.070557 754.313171,699.429016 749.571289,697.045959 
	C739.309265,691.888611 735.867310,681.643127 740.866516,671.922791 
	C744.276001,665.293396 750.472656,662.754028 757.241150,661.944519 
	C765.561646,660.949463 773.868958,661.584656 782.086304,665.194824 
z"/>
<path fill="#000000" opacity="1.000000" stroke="none" 
	d="
M231.134705,623.854248 
	C232.872314,602.583252 233.852158,581.699219 230.856277,559.828979 
	C238.290451,557.934265 246.211990,558.846863 254.739685,559.161072 
	C250.533096,570.093811 252.497253,580.300781 252.086349,590.326294 
	C251.779755,597.806702 252.173569,605.313354 252.031296,612.804077 
	C251.961502,616.478882 253.397491,617.781616 257.048798,617.729187 
	C263.563812,617.635742 270.023193,618.205750 274.918457,612.328857 
	C277.153625,609.645447 278.875702,611.509094 279.057068,614.189026 
	C279.314941,617.999939 279.159943,621.842407 279.095978,625.670044 
	C279.055054,628.117554 277.171997,628.711243 275.292877,628.734192 
	C261.479492,628.902832 247.661850,629.326233 233.854355,628.534973 
	C231.152985,628.380249 229.050903,627.597900 231.134705,623.854248 
z"/>
<path fill="#000000" opacity="1.000000" stroke="none" 
	d="
M735.660950,628.816406 
	C733.683594,628.377014 731.891479,628.690979 731.409729,628.180664 
	C733.524231,605.005859 733.523254,582.783997 731.413025,559.532654 
	C738.295898,558.321960 745.915527,558.295715 754.366333,559.804749 
	C750.754700,566.281372 751.367371,572.472107 751.359314,578.578918 
	C751.343994,590.060791 751.430115,601.543091 751.343750,613.024231 
	C751.318848,616.327087 752.337769,618.068420 755.943176,617.712524 
	C757.920349,617.517334 759.934143,617.649170 761.929993,617.694336 
	C766.950867,617.807861 771.560547,617.022888 774.623840,612.397644 
	C775.371521,611.268799 776.410645,610.304626 777.964722,610.880188 
	C779.338806,611.389099 779.278870,612.684143 779.295044,613.834778 
	C779.348938,617.661438 779.303284,621.489929 779.390930,625.315552 
	C779.473816,628.931763 776.727783,628.724915 774.525574,628.767334 
	C766.707458,628.918091 758.885498,628.875732 751.064941,628.887451 
	C746.073059,628.894958 741.081116,628.869019 735.660950,628.816406 
z"/>
<path fill="#000000" opacity="1.000000" stroke="none" 
	d="
M243.985428,699.997437 
	C243.911118,690.850281 243.834625,682.202515 243.761353,673.554749 
	C243.712280,667.762573 244.129028,661.884949 239.123062,656.093872 
	C249.978363,654.565918 259.324890,654.714539 269.693726,655.818726 
	C264.237213,664.360168 265.399567,672.929382 265.321503,681.304504 
	C265.231628,690.949707 265.289398,700.596436 265.328522,710.242371 
	C265.345490,714.423340 265.691315,718.523987 268.368469,722.062317 
	C270.098419,724.348755 269.304932,726.045410 266.576630,726.103394 
	C258.766296,726.269775 250.948730,726.218384 243.136627,726.091431 
	C241.295029,726.061462 239.541733,724.888123 240.868942,722.845642 
	C245.429489,715.827026 243.346054,707.993103 243.985428,699.997437 
z"/>
<path fill="#000000" opacity="1.000000" stroke="none" 
	d="
M582.563110,676.852234 
	C580.386292,678.488159 579.304932,676.826843 578.031128,675.891724 
	C576.113403,674.484070 574.020630,673.581482 571.631470,673.320679 
	C565.887512,672.693970 564.395752,673.482117 564.743835,679.262390 
	C565.485107,691.574036 563.380066,703.882751 565.097839,716.192261 
	C565.522095,719.232544 566.608215,721.884521 568.052246,724.418274 
	C565.287354,727.266357 562.118164,725.980286 559.277222,726.260681 
	C557.627869,726.423523 555.944580,726.357361 554.283875,726.263611 
	C551.487549,726.105835 548.168274,727.251892 546.027893,725.333374 
	C543.100952,722.709778 547.382385,720.489563 547.379700,717.811218 
	C547.373413,711.490173 547.614258,705.169250 547.667297,698.847595 
	C547.724609,692.018433 547.474121,685.179810 547.758789,678.362000 
	C547.937500,674.083008 546.324463,672.848145 542.223999,673.117554 
	C538.839600,673.339905 536.201843,674.754700 533.575745,676.566345 
	C530.731873,678.528137 529.070923,677.830566 529.395874,674.282898 
	C530.521118,661.997314 526.611206,662.711426 540.900818,662.700134 
	C552.894287,662.690613 564.891113,662.853638 576.879578,662.607117 
	C581.391235,662.514404 583.429932,663.917114 582.986938,668.566895 
	C582.735779,671.203308 582.841919,673.873840 582.563110,676.852234 
z"/>
<path fill="#000000" opacity="1.000000" stroke="none" 
	d="
M806.197998,595.000000 
	C806.906860,606.016235 804.262451,616.798401 809.146851,627.576721 
	C800.895447,629.554626 793.063293,629.544922 785.709412,627.972656 
	C788.798340,605.091797 788.383789,582.858704 786.119263,560.104431 
	C789.482117,558.048645 804.367615,557.948730 808.619324,560.477600 
	C804.392212,571.570435 806.989624,583.154724 806.197998,595.000000 
z"/>
<path fill="#000000" opacity="1.000000" stroke="none" 
	d="
M652.839905,722.785950 
	C654.342163,719.855164 654.719788,717.109131 654.712219,714.230835 
	C654.677979,701.267761 654.715637,688.304565 654.730530,675.341370 
	C654.734009,672.344238 654.786987,669.353882 653.125854,666.648865 
	C652.217285,665.169312 652.129272,663.262512 654.101501,663.134460 
	C660.916016,662.691833 667.801941,661.928406 673.815552,663.458008 
	C671.459778,684.543884 671.107361,704.810303 674.165833,725.738770 
	C667.764893,726.827148 660.718933,726.368469 653.699280,725.922180 
	C652.301453,725.833374 652.172302,724.393250 652.839905,722.785950 
z"/>
</svg>